<svg width="301" height="128" fill="none" xmlns="http://www.w3.org/2000/svg"><path d="M60 118a2 2 0 0 1-2 2H11a2 2 0 0 1-2-2V76c0-12.519 8.917-24 23-24s28 10.148 28 22.667V118ZM9 10a2 2 0 0 1 2-2h47a2 2 0 0 1 2 2v10.5C60 34.031 48.583 45 34.5 45S9 34.031 9 20.5V10ZM74.268 60c-1.486 0-2.735-.414-3.748-1.243-.946-.898-1.453-2.037-1.52-3.418 0-1.381.574-2.832 1.722-4.351l13.981-17.61-12.968-16.366c-1.215-1.52-1.79-2.97-1.722-4.35.068-1.382.574-2.487 1.52-3.315C72.546 8.449 73.795 8 75.28 8c1.554 0 2.837.276 3.85.829 1.08.552 2.06 1.415 2.938 2.59l9.928 13.051 10.03-13.052c.946-1.174 1.925-2.037 2.938-2.59 1.013-.552 2.263-.828 3.748-.828 1.554 0 2.803.449 3.749 1.347.945.897 1.418 2.037 1.418 3.418.068 1.381-.506 2.831-1.722 4.35L99.19 33.38l14.082 17.609c1.216 1.45 1.79 2.866 1.723 4.247-.068 1.381-.608 2.52-1.621 3.418-.946.898-2.195 1.347-3.749 1.347-2.701 0-4.93-1.14-6.686-3.418L91.896 42.39 80.955 56.582c-.879 1.105-1.824 1.968-2.837 2.59-1.013.552-2.296.828-3.85.828ZM93.5 121c-5.168 0-9.656-1.076-13.464-3.228s-6.766-5.206-8.874-9.163C69.054 104.583 68 99.863 68 94.448c0-5.415 1.054-10.1 3.162-14.057 2.108-3.957 5.066-7.011 8.874-9.163C83.844 69.076 88.332 68 93.5 68c5.168 0 9.656 1.076 13.464 3.228s6.766 5.206 8.874 9.163c2.108 3.957 3.162 8.642 3.162 14.057 0 5.415-1.054 10.135-3.162 14.161-2.108 3.957-5.066 7.011-8.874 9.163C103.156 119.924 98.668 121 93.5 121Z" fill="#141313"/><path d="M55 118c0 1.105-.915 2-2.044 2H11.044C9.915 120 9 119.105 9 118V74.667C9 62.148 19.297 52 32 52s23 10.148 23 22.667V118Z" fill="#9786FF"/><path fill-rule="evenodd" clip-rule="evenodd" d="M137.5 8a1.5 1.5 0 0 1 1.5 1.5v109a1.5 1.5 0 0 1-3 0V9.5a1.5 1.5 0 0 1 1.5-1.5Z" fill="#000"/><path d="M155.4 112V77h6.4l16.45 24.65V77h6.4v35h-6.4L161.8 87.4V112h-6.4ZM203.185 112.6c-2.4 0-4.567-.55-6.5-1.65-1.9-1.1-3.417-2.617-4.55-4.55-1.1-1.967-1.65-4.233-1.65-6.8s.567-4.817 1.7-6.75c1.133-1.967 2.65-3.5 4.55-4.6 1.933-1.1 4.1-1.65 6.5-1.65 2.367 0 4.5.55 6.4 1.65 1.933 1.1 3.45 2.633 4.55 4.6 1.133 1.933 1.7 4.183 1.7 6.75s-.567 4.833-1.7 6.8a11.937 11.937 0 0 1-4.55 4.55c-1.933 1.1-4.083 1.65-6.45 1.65Zm0-5.55c1.667 0 3.117-.617 4.35-1.85 1.233-1.267 1.85-3.133 1.85-5.6 0-2.467-.617-4.317-1.85-5.55-1.233-1.267-2.667-1.9-4.3-1.9-1.7 0-3.167.633-4.4 1.9-1.2 1.233-1.8 3.083-1.8 5.55 0 2.467.6 4.333 1.8 5.6 1.233 1.233 2.683 1.85 4.35 1.85ZM221.607 112V87.2h5.7l.6 4.65c.9-1.6 2.117-2.867 3.65-3.8 1.567-.967 3.4-1.45 5.5-1.45v6.75h-1.8c-1.4 0-2.65.217-3.75.65-1.1.433-1.966 1.183-2.6 2.25-.6 1.067-.9 2.55-.9 4.45V112h-6.4ZM251.346 104.6c-1.2 0-2.317-.133-3.35-.4l-1.85 1.85c.566.3 1.333.55 2.3.75.966.2 2.533.4 4.7.6 3.3.3 5.7 1.083 7.2 2.35 1.5 1.267 2.25 3.017 2.25 5.25 0 1.467-.4 2.85-1.2 4.15-.8 1.333-2.034 2.4-3.7 3.2-1.667.833-3.8 1.25-6.4 1.25-3.534 0-6.384-.667-8.55-2-2.167-1.3-3.25-3.267-3.25-5.9 0-2.233 1.083-4.167 3.25-5.8-.667-.3-1.25-.617-1.75-.95a9.773 9.773 0 0 1-1.25-1.05v-1.15l4.35-4.6c-1.934-1.7-2.9-3.883-2.9-6.55 0-1.667.4-3.183 1.2-4.55.833-1.367 2-2.45 3.5-3.25 1.5-.8 3.316-1.2 5.45-1.2 1.4 0 2.7.2 3.9.6h9.4v3.9l-4.25.3c.666 1.267 1 2.667 1 4.2 0 1.667-.4 3.183-1.2 4.55-.8 1.367-1.967 2.45-3.5 3.25-1.5.8-3.284 1.2-5.35 1.2Zm0-4.9c1.3 0 2.366-.35 3.2-1.05.866-.7 1.3-1.7 1.3-3s-.434-2.3-1.3-3c-.834-.7-1.9-1.05-3.2-1.05-1.367 0-2.467.35-3.3 1.05-.834.7-1.25 1.7-1.25 3s.416 2.3 1.25 3c.833.7 1.933 1.05 3.3 1.05Zm-6 15.35c0 1.233.566 2.15 1.7 2.75 1.166.633 2.583.95 4.25.95 1.6 0 2.9-.333 3.9-1 1-.633 1.5-1.5 1.5-2.6 0-.9-.334-1.65-1-2.25-.634-.6-1.917-.967-3.85-1.1a39.67 39.67 0 0 1-3.8-.45c-.967.533-1.667 1.117-2.1 1.75-.4.633-.6 1.283-.6 1.95ZM280.386 112.6c-2.5 0-4.717-.533-6.65-1.6a11.587 11.587 0 0 1-4.55-4.5c-1.1-1.933-1.65-4.167-1.65-6.7 0-2.567.533-4.85 1.6-6.85 1.1-2 2.6-3.55 4.5-4.65 1.933-1.133 4.2-1.7 6.8-1.7 2.433 0 4.583.533 6.45 1.6a11.26 11.26 0 0 1 4.35 4.4c1.067 1.833 1.6 3.883 1.6 6.15 0 .367-.017.75-.05 1.15 0 .4-.017.817-.05 1.25h-18.85c.133 1.933.8 3.45 2 4.55 1.233 1.1 2.717 1.65 4.45 1.65 1.3 0 2.383-.283 3.25-.85.9-.6 1.567-1.367 2-2.3h6.5c-.467 1.567-1.25 3-2.35 4.3-1.067 1.267-2.4 2.267-4 3-1.567.733-3.35 1.1-5.35 1.1Zm.05-20.8c-1.567 0-2.95.45-4.15 1.35-1.2.867-1.967 2.2-2.3 4h12.35c-.1-1.633-.7-2.933-1.8-3.9-1.1-.967-2.467-1.45-4.1-1.45ZM168.9 51.6c-2.567 0-4.883-.5-6.95-1.5-2.067-1.033-3.717-2.583-4.95-4.65-1.2-2.067-1.8-4.683-1.8-7.85V16h6.4v21.65c0 2.733.65 4.767 1.95 6.1 1.333 1.333 3.167 2 5.5 2 2.3 0 4.117-.667 5.45-2 1.333-1.333 2-3.367 2-6.1V16h6.4v21.6c0 3.167-.633 5.783-1.9 7.85-1.267 2.067-2.967 3.617-5.1 4.65-2.1 1-4.433 1.5-7 1.5ZM187.733 51l10.95-17.7-11.1-17.3h7.35l7.85 12.2 7.2-12.2h7.2l-10.95 17.6 11.2 17.4h-7.35l-7.95-12.35-7.2 12.35h-7.2Z" fill="#141313"/></svg>